<svg xmlns="http://www.w3.org/2000/svg" version="1.1" xmlns:xlink="http://www.w3.org/1999/xlink" xmlns:svgjs="http://svgjs.dev/svgjs" width="1440" height="560" preserveAspectRatio="none" viewBox="0 0 1440 560"><g mask="url(&quot;#SvgjsMask2012&quot;)" fill="none"><rect width="1440" height="560" x="0" y="0" fill="url(&quot;#SvgjsLinearGradient2013&quot;)"></rect><path d="M1440 0L935.4 0L1440 141.85z" fill="rgba(255, 255, 255, .1)"></path><path d="M935.4 0L1440 141.85L1440 281.57L643.1099999999999 0z" fill="rgba(255, 255, 255, .075)"></path><path d="M643.1099999999999 0L1440 281.57L1440 343.36L264.1899999999999 0z" fill="rgba(255, 255, 255, .05)"></path><path d="M264.1899999999998 0L1440 343.36L1440 464.58000000000004L254.72999999999982 0z" fill="rgba(255, 255, 255, .025)"></path><path d="M0 560L301.33 560L0 417.35z" fill="rgba(0, 0, 0, .1)"></path><path d="M0 417.35L301.33 560L376.53 560L0 230.09000000000003z" fill="rgba(0, 0, 0, .075)"></path><path d="M0 230.09000000000003L376.53 560L415.96999999999997 560L0 139.59000000000003z" fill="rgba(0, 0, 0, .05)"></path><path d="M0 139.59000000000003L415.96999999999997 560L1092.19 560L0 95.58000000000004z" fill="rgba(0, 0, 0, .025)"></path></g><defs><mask id="SvgjsMask2012"><rect width="1440" height="560" fill="#ffffff"></rect></mask><linearGradient x1="84.72%" y1="-39.29%" x2="15.28%" y2="139.29%" gradientUnits="userSpaceOnUse" id="SvgjsLinearGradient2013"><stop stop-color="rgba(140, 185, 189, 1)" offset="0"></stop><stop stop-color="rgba(254, 251, 246, 1)" offset="0.86"></stop></linearGradient></defs></svg>